<?xml version="1.0" encoding="UTF-8" standalone="no"?>
<svg
   id="Layer_2"
   data-name="Layer 2"
   viewBox="0 0 677.00899 82.870002"
   version="1.1"
   sodipodi:docname="scooter-city-logo-horizontal-dark.svg"
   width="677.00897"
   height="82.870003"
   inkscape:version="1.4 (e7c3feb1, 2024-10-09)"
   xmlns:inkscape="http://www.inkscape.org/namespaces/inkscape"
   xmlns:sodipodi="http://sodipodi.sourceforge.net/DTD/sodipodi-0.dtd"
   xmlns="http://www.w3.org/2000/svg"
   xmlns:svg="http://www.w3.org/2000/svg">
  <sodipodi:namedview
     id="namedview30"
     pagecolor="#505050"
     bordercolor="#eeeeee"
     borderopacity="1"
     inkscape:showpageshadow="0"
     inkscape:pageopacity="0"
     inkscape:pagecheckerboard="0"
     inkscape:deskcolor="#505050"
     inkscape:zoom="1.1707771"
     inkscape:cx="343.36169"
     inkscape:cy="11.530803"
     inkscape:window-width="1728"
     inkscape:window-height="728"
     inkscape:window-x="0"
     inkscape:window-y="357"
     inkscape:window-maximized="0"
     inkscape:current-layer="g33" />
  <defs
     id="defs1">
    <style
       id="style1">
      .cls-1 {
        fill: #42bccc;
      }

      .cls-2 {
        fill: #14181e;
      }

      .cls-3 {
        fill: #a3aaae;
      }

      .cls-4 {
        fill: #12161b;
      }

      .cls-5 {
        fill: #44bbcb;
      }

      .cls-6 {
        fill: #13171c;
      }

      .cls-7 {
        fill: #13171d;
      }

      .cls-8 {
        fill: #13181d;
      }

      .cls-9 {
        fill: #41bccc;
      }

      .cls-10 {
        fill: #40bccb;
      }

      .cls-11 {
        fill: #a3aaaf;
      }

      .cls-12 {
        fill: #40bbcb;
      }
    </style>
  </defs>
  <g
     id="Layer_1-2"
     data-name="Layer 1">
    <g
       id="g30">
      <g
         id="g14"
         transform="translate(-34.32)">
        <g
           id="g32">
          <path
             class="cls-4"
             d="m 119.58,82.81 -85.26,0.06 c 0.91,-2.46 3.28,-3.52 5,-5.2 l 12.95,-12.6 68.23,-0.18 c 3.4,0 6.5,-2.42 7.48,-4.6 1.28,-2.83 1.32,-6.83 -0.93,-9.19 -1.69,-1.76 -4.18,-2.6 -6.62,-2.61 L 80.59,48.33 C 74.92,48.31 69.28,46.75 65.19,42.89 59.23,37.26 57.49,28.64 59.86,20.83 64.23,6.49 78.97,-0.3 93.99,0.06 l 71.87,0.06 c -7.78,4.98 -14.6,9.66 -20.45,16.39 L 91.8,16.55 c -3.46,0 -6.89,1.23 -8.86,3.92 -1.8,2.46 -2.29,5.74 -0.9,8.51 1.13,2.25 4.02,4.41 7.33,4.42 l 49.38,0.21 c -4.5,14.47 -3.15,29 5.55,41.47 -7.44,4.75 -15.35,7.32 -24.71,7.72 z"
             id="path11" />
          <g
             id="g13">
            <path
               class="cls-5"
               d="m 161.89,53.93 c -1.26,-5.95 -0.65,-11.62 1.35,-16.65 l -0.17,0.41 -21.14,-0.21 c -1.01,3.84 -1.58,7.85 -1.61,12 -0.07,8.46 2.18,16.52 7.43,22.85 5.3,6.38 12.49,10.43 20.88,10.45 l 29.34,0.07 c 4.24,0 8.12,-1.46 11.51,-3.78 6.47,-4.45 12.45,-9.2 18.14,-14.76 l -53.53,-0.23 c -5.99,-0.03 -10.9,-4.1 -12.18,-10.13 z"
               id="path12" />
            <path
               class="cls-5"
               d="M 231.61,9.39 249.24,7.26 258.29,0 191.34,0.14 c -23.05,0.05 -42.64,15 -48.91,35.61 h 21.46 l -0.17,0.4 c 4.96,-11.11 16.77,-18.81 30.02,-18.89 l 43.35,-0.24 9.32,-7.49 -14.81,-0.14 z"
               id="path13" />
          </g>
        </g>
      </g>
      <g
         id="g31"
         transform="translate(226.72326,-87.72)">
        <g
           id="g33"
           transform="matrix(1.604453,0,0,1.604453,23.96674,-78.068128)">
          <g
             id="g10">
            <path
               class="cls-8"
               d="m 146.26,119.25 -11.75,0.14 -0.09,4.67 13.69,0.11 -0.02,5.16 -19.94,-0.02 -0.04,-25.19 19.7,-0.04 0.1,5.31 -13.4,0.12 c -0.23,1.67 -0.23,3.08 0,4.71 l 11.65,0.06 c 0.37,1.69 0.45,2.8 0.09,4.96 z"
               id="path1" />
            <path
               class="cls-7"
               d="M 21.11,123.81 C 19.22,130.93 7.19,131.47 0,126.78 l 2.33,-5.03 c 5.44,3.73 12.6,3.36 12.52,0.47 -0.03,-0.87 -0.73,-1.72 -1.78,-2.03 l -7.63,-2.25 c -2.66,-0.79 -4.56,-2.87 -4.79,-5.12 -0.27,-2.66 0.45,-5.41 2.85,-6.94 5.24,-3.33 12.13,-2.83 17.16,0.7 -0.66,1.79 -1.34,3.27 -2.44,4.8 -5.81,-3.85 -11.9,-2.4 -11.29,0.08 0.77,3.13 16.92,1.99 14.17,12.35 z"
               id="path2" />
            <path
               class="cls-12"
               d="m 189.35,109.36 c -3.78,0.77 -5.73,3.91 -5.8,6.9 -0.09,3.4 1.58,6.37 4.45,7.52 3.12,1.25 6.45,0.64 9.2,-1.94 1.7,0.73 2.77,2.23 4.31,3.67 -2.44,3.23 -6.47,4.43 -10.64,4.44 -8.05,0.02 -13.86,-5.65 -13.91,-13.17 -0.06,-7.88 6.41,-13.7 14.56,-13.2 3.87,0.24 7.45,1.32 9.87,4.54 -1.08,1.36 -2.37,2.7 -4.12,3.73 -2.18,-1.67 -4.73,-3.15 -7.93,-2.5 z"
               id="path3" />
            <path
               class="cls-8"
               d="m 33.68,109.85 c -4.81,2.22 -5.38,7.86 -2.76,11.59 2.62,3.73 8.09,4.19 11.95,0.84 1.78,0.72 3.04,2.08 4.19,3.5 -6.38,6.41 -17.99,5.02 -22.18,-2.55 -2.66,-4.8 -2.25,-10.93 1.53,-15.18 5.25,-5.9 14.98,-5.77 20.58,-0.39 -1.14,1.78 -2.35,2.87 -3.77,4.21 -2.5,-2.21 -6.08,-3.63 -9.54,-2.03 z"
               id="path4" />
            <path
               class="cls-9"
               d="m 265.71,104.24 -9.87,16 -0.41,8.92 c -2.1,0.45 -4.37,0.4 -6.43,0.02 l -0.33,-8.51 -9.39,-16.42 6.87,-0.19 6.29,10.03 5.97,-9.96 7.3,0.1 z"
               id="path5" />
            <path
               class="cls-10"
               d="m 229.15,129.07 c -2.57,0.64 -4.64,0.45 -6.7,0.16 l -0.07,-19.36 -7.46,-0.11 v -5.7 c 0,0 21.89,0 21.89,0 v 5.71 c 0,0 -7.7,0.08 -7.7,0.08 z"
               id="path6" />
            <path
               class="cls-2"
               d="m 117.74,129.08 c -2.3,0.52 -4.11,0.31 -6.09,0.12 l -0.02,-19.43 -7.44,-0.08 0.03,-5.64 h 21.19 c 0,0 0.05,5.5 0.05,5.5 l -7.7,0.08 v 19.45 z"
               id="path7" />
            <rect
               class="cls-1"
               x="204.81"
               y="104.05"
               width="6.6500001"
               height="25.360001"
               id="rect7" />
            <path
               class="cls-7"
               d="m 169.3,120.72 c 4.16,-2.16 5.62,-6.11 4.53,-10.16 -0.98,-3.66 -4.51,-6.39 -8.73,-6.39 h -13.14 c 0,0 0.01,25.06 0.01,25.06 l 6.21,-0.02 0.26,-7.3 c 1.79,-0.19 3.7,-0.53 4.52,0.51 l 5.06,6.47 c 2,1.2 4.83,0.34 6.84,0.27 l -5.57,-8.45 z m -4.3,-4.33 c -2.41,0.54 -4.57,0.46 -6.68,0.16 v -7.09 c 0,0 6.14,0.15 6.14,0.15 1.72,0.04 2.9,1.39 3.16,2.66 0.36,1.78 -0.33,3.6 -2.61,4.12 z"
               id="path8" />
            <path
               class="cls-7"
               d="m 90,103.33 c -7.44,0 -13.48,6.03 -13.48,13.48 0,7.45 6.03,13.48 13.48,13.48 7.45,0 13.48,-6.03 13.48,-13.48 0,-7.45 -6.03,-13.48 -13.48,-13.48 z m -0.05,21.23 c -4.24,0 -7.67,-3.44 -7.67,-7.67 0,-4.23 3.44,-7.67 7.67,-7.67 4.23,0 7.67,3.44 7.67,7.67 0,4.23 -3.44,7.67 -7.67,7.67 z"
               id="path9" />
            <path
               class="cls-6"
               d="m 60.95,103.49 c -7.38,0 -13.36,5.98 -13.36,13.36 0,7.38 5.98,13.36 13.36,13.36 7.38,0 13.36,-5.98 13.36,-13.36 0,-7.38 -5.98,-13.36 -13.36,-13.36 z m -0.04,20.98 c -4.18,0 -7.58,-3.39 -7.58,-7.58 0,-4.19 3.39,-7.58 7.58,-7.58 4.19,0 7.58,3.39 7.58,7.58 0,4.19 -3.39,7.58 -7.58,7.58 z"
               id="path10"
               sodipodi:nodetypes="ssssssssss" />
          </g>
          <g
             id="g29">
            <g
               id="g20">
              <path
                 class="cls-11"
                 d="m 31.65,143.33 h 3.12 l 4.08,11.64 H 36.2 l -0.9,-2.7 h -4.13 l -0.87,2.7 h -2.63 z m 3.03,7.07 -0.35,-1.05 c -0.38,-1.2 -0.74,-2.57 -1.15,-4.16 -0.39,1.6 -0.73,2.98 -1.09,4.16 l -0.34,1.05 h 2.92 z"
                 id="path14" />
              <path
                 class="cls-11"
                 d="m 42.21,143.33 h 2.66 l 3.68,5.89 c 0.46,0.76 0.95,1.64 1.46,2.85 -0.09,-1.14 -0.15,-2.39 -0.15,-3.16 v -5.59 h 2.44 v 11.64 h -2.66 l -3.34,-5.34 c -0.65,-1.05 -1.08,-1.9 -1.8,-3.35 0.09,1.41 0.16,2.66 0.16,3.34 v 5.35 h -2.44 v -11.64 z"
                 id="path15" />
              <path
                 class="cls-11"
                 d="m 59.96,150.6 -4.31,-7.27 h 2.79 l 1.97,3.62 c 0.3,0.53 0.52,1.02 0.76,1.62 0.23,-0.62 0.45,-1.1 0.73,-1.62 l 1.91,-3.62 h 2.78 l -4.24,7.27 v 4.38 h -2.38 v -4.38 z"
                 id="path16" />
              <path
                 class="cls-11"
                 d="m 69.61,143.33 h 9.51 v 1.98 h -3.55 v 9.66 h -2.39 v -9.66 h -3.56 v -1.98 z"
                 id="path17" />
              <path
                 class="cls-11"
                 d="m 85.06,154.97 h -2.38 v -11.64 h 2.38 z"
                 id="path18" />
              <path
                 class="cls-11"
                 d="m 89.09,143.33 h 3.66 l 1.89,5.34 c 0.23,0.73 0.59,2.29 0.87,3.55 0.27,-1.26 0.62,-2.81 0.86,-3.55 l 1.86,-5.34 h 3.67 v 11.64 h -2.4 v -5.49 c 0,-0.88 0.06,-2.62 0.09,-4.09 -0.39,1.57 -0.88,3.27 -1.16,4.09 l -1.93,5.49 h -2.01 l -1.96,-5.49 c -0.27,-0.8 -0.74,-2.44 -1.16,-4 0.02,1.41 0.09,3.12 0.09,4 v 5.49 h -2.37 z"
                 id="path19" />
              <path
                 class="cls-11"
                 d="m 105.91,143.33 h 7.79 v 1.98 h -5.41 v 2.81 h 5 v 1.95 h -5 V 153 h 5.42 v 1.98 h -7.8 v -11.64 z"
                 id="path20" />
            </g>
            <g
               id="g28">
              <path
                 class="cls-3"
                 d="m 135.49,143.33 h 3.12 l 4.08,11.64 h -2.65 l -0.9,-2.7 h -4.13 l -0.87,2.7 h -2.63 z m 3.04,7.07 -0.35,-1.05 c -0.38,-1.2 -0.74,-2.57 -1.15,-4.16 -0.39,1.6 -0.73,2.98 -1.09,4.16 l -0.34,1.05 h 2.92 z"
                 id="path21" />
              <path
                 class="cls-3"
                 d="m 146.05,143.33 h 2.66 l 3.68,5.89 c 0.46,0.76 0.95,1.64 1.46,2.85 -0.09,-1.14 -0.15,-2.39 -0.15,-3.16 v -5.59 h 2.44 v 11.64 h -2.66 l -3.34,-5.34 c -0.65,-1.05 -1.08,-1.9 -1.8,-3.35 0.09,1.41 0.16,2.66 0.16,3.34 v 5.35 h -2.44 v -11.64 z"
                 id="path22" />
              <path
                 class="cls-3"
                 d="m 163.81,150.6 -4.31,-7.27 h 2.79 l 1.97,3.62 c 0.3,0.53 0.52,1.02 0.76,1.62 0.23,-0.62 0.45,-1.1 0.73,-1.62 l 1.91,-3.62 h 2.78 l -4.24,7.27 v 4.38 h -2.38 v -4.38 z"
                 id="path23" />
              <path
                 class="cls-3"
                 d="m 173.11,143.33 h 2.6 l 1.35,5.73 c 0.23,1.07 0.44,2.34 0.62,3.53 0.21,-1.2 0.41,-2.46 0.68,-3.53 l 1.42,-5.73 h 2.48 l 1.41,5.73 c 0.26,1.06 0.47,2.31 0.68,3.5 0.19,-1.19 0.39,-2.44 0.62,-3.5 l 1.35,-5.73 h 2.61 l -3.13,11.64 h -2.72 l -1.55,-5.95 c -0.21,-0.84 -0.37,-1.78 -0.53,-2.78 -0.15,0.97 -0.29,1.9 -0.52,2.78 l -1.54,5.95 h -2.73 l -3.12,-11.64 z"
                 id="path24" />
              <path
                 class="cls-3"
                 d="m 192.3,143.33 h 2.38 v 4.7 h 5.07 v -4.7 h 2.39 v 11.64 h -2.39 v -4.96 h -5.07 v 4.96 h -2.38 z"
                 id="path25" />
              <path
                 class="cls-3"
                 d="m 206.17,143.33 h 7.79 v 1.98 h -5.41 v 2.81 h 5 v 1.95 h -5 V 153 h 5.42 v 1.98 h -7.8 v -11.64 z"
                 id="path26" />
              <path
                 class="cls-3"
                 d="m 217.81,143.33 h 4.54 c 2.65,0 4.16,1.5 4.16,3.79 0,1.59 -0.73,2.74 -2.06,3.31 l 2.48,4.54 h -2.64 l -2.22,-4.16 h -1.88 v 4.16 h -2.38 z m 4.1,5.56 c 1.45,0 2.14,-0.6 2.14,-1.77 0,-1.17 -0.69,-1.82 -2.15,-1.82 h -1.71 v 3.59 z"
                 id="path27" />
              <path
                 class="cls-3"
                 d="m 230.24,143.33 h 7.79 v 1.98 h -5.41 v 2.81 h 5 v 1.95 h -5 V 153 h 5.42 v 1.98 h -7.8 v -11.64 z"
                 id="path28" />
            </g>
            <circle
               class="cls-11"
               cx="123.1"
               cy="148.84"
               r="2.01"
               id="circle28" />
          </g>
        </g>
      </g>
    </g>
  </g>
</svg>
