<?xml version="1.0" encoding="UTF-8"?>
<svg id="Layer_2" data-name="Layer 2" xmlns="http://www.w3.org/2000/svg" viewBox="0 0 265.71 154.97">
  <defs>
    <style>
      .cls-1 {
        fill: #42bccc;
      }

      .cls-2 {
        fill: #14181e;
      }

      .cls-3 {
        fill: #a3aaae;
      }

      .cls-4 {
        fill: #12161b;
      }

      .cls-5 {
        fill: #44bbcb;
      }

      .cls-6 {
        fill: #13171c;
      }

      .cls-7 {
        fill: #13171d;
      }

      .cls-8 {
        fill: #13181d;
      }

      .cls-9 {
        fill: #41bccc;
      }

      .cls-10 {
        fill: #40bccb;
      }

      .cls-11 {
        fill: #a3aaaf;
      }

      .cls-12 {
        fill: #40bbcb;
      }
    </style>
  </defs>
  <g id="Layer_1-2" data-name="Layer 1">
    <g>
      <g>
        <path class="cls-8" d="M146.26,119.25l-11.75.14-.09,4.67,13.69.11-.02,5.16-19.94-.02-.04-25.19,19.7-.04.1,5.31-13.4.12c-.23,1.67-.23,3.08,0,4.71l11.65.06c.37,1.69.45,2.8.09,4.96Z"/>
        <path class="cls-7" d="M21.11,123.81c-1.89,7.12-13.92,7.66-21.11,2.97l2.33-5.03c5.44,3.73,12.6,3.36,12.52.47-.03-.87-.73-1.72-1.78-2.03l-7.63-2.25c-2.66-.79-4.56-2.87-4.79-5.12-.27-2.66.45-5.41,2.85-6.94,5.24-3.33,12.13-2.83,17.16.7-.66,1.79-1.34,3.27-2.44,4.8-5.81-3.85-11.9-2.4-11.29.08.77,3.13,16.92,1.99,14.17,12.35Z"/>
        <path class="cls-12" d="M189.35,109.36c-3.78.77-5.73,3.91-5.8,6.9-.09,3.4,1.58,6.37,4.45,7.52,3.12,1.25,6.45.64,9.2-1.94,1.7.73,2.77,2.23,4.31,3.67-2.44,3.23-6.47,4.43-10.64,4.44-8.05.02-13.86-5.65-13.91-13.17-.06-7.88,6.41-13.7,14.56-13.2,3.87.24,7.45,1.32,9.87,4.54-1.08,1.36-2.37,2.7-4.12,3.73-2.18-1.67-4.73-3.15-7.93-2.5Z"/>
        <path class="cls-8" d="M33.68,109.85c-4.81,2.22-5.38,7.86-2.76,11.59s8.09,4.19,11.95.84c1.78.72,3.04,2.08,4.19,3.5-6.38,6.41-17.99,5.02-22.18-2.55-2.66-4.8-2.25-10.93,1.53-15.18,5.25-5.9,14.98-5.77,20.58-.39-1.14,1.78-2.35,2.87-3.77,4.21-2.5-2.21-6.08-3.63-9.54-2.03Z"/>
        <path class="cls-9" d="M265.71,104.24l-9.87,16-.41,8.92c-2.1.45-4.37.4-6.43.02l-.33-8.51-9.39-16.42,6.87-.19,6.29,10.03,5.97-9.96,7.3.1Z"/>
        <path class="cls-10" d="M229.15,129.07c-2.57.64-4.64.45-6.7.16l-.07-19.36-7.46-.11v-5.7s21.89,0,21.89,0v5.71s-7.7.08-7.7.08l.04,19.22Z"/>
        <path class="cls-2" d="M117.74,129.08c-2.3.52-4.11.31-6.09.12l-.02-19.43-7.44-.08.03-5.64h21.19s.05,5.5.05,5.5l-7.7.08v19.45Z"/>
        <rect class="cls-1" x="204.81" y="104.05" width="6.65" height="25.36"/>
        <path class="cls-7" d="M169.3,120.72c4.16-2.16,5.62-6.11,4.53-10.16-.98-3.66-4.51-6.39-8.73-6.39h-13.14s.01,25.06.01,25.06l6.21-.02.26-7.3c1.79-.19,3.7-.53,4.52.51l5.06,6.47c2,1.2,4.83.34,6.84.27l-5.57-8.45ZM165,116.39c-2.41.54-4.57.46-6.68.16v-7.09s6.14.15,6.14.15c1.72.04,2.9,1.39,3.16,2.66.36,1.78-.33,3.6-2.61,4.12Z"/>
        <path class="cls-7" d="M90,103.33c-7.44,0-13.48,6.03-13.48,13.48s6.03,13.48,13.48,13.48,13.48-6.03,13.48-13.48-6.03-13.48-13.48-13.48ZM89.95,124.56c-4.24,0-7.67-3.44-7.67-7.67s3.44-7.67,7.67-7.67,7.67,3.44,7.67,7.67-3.44,7.67-7.67,7.67Z"/>
        <path class="cls-6" d="M60.95,103.49c-7.38,0-13.36,5.98-13.36,13.36s5.98,13.36,13.36,13.36,13.36-5.98,13.36-13.36-5.98-13.36-13.36-13.36ZM60.91,124.47c-4.18,0-7.58-3.39-7.58-7.58s3.39-7.58,7.58-7.58,7.58,3.39,7.58,7.58-3.39,7.58-7.58,7.58Z"/>
      </g>
      <g>
        <path class="cls-4" d="M119.58,82.81l-85.26.06c.91-2.46,3.28-3.52,5-5.2l12.95-12.6,68.23-.18c3.4,0,6.5-2.42,7.48-4.6,1.28-2.83,1.32-6.83-.93-9.19-1.69-1.76-4.18-2.6-6.62-2.61l-39.84-.16c-5.67-.02-11.31-1.58-15.4-5.44-5.96-5.63-7.7-14.25-5.33-22.06C64.23,6.49,78.97-.3,93.99.06l71.87.06c-7.78,4.98-14.6,9.66-20.45,16.39l-53.61.04c-3.46,0-6.89,1.23-8.86,3.92-1.8,2.46-2.29,5.74-.9,8.51,1.13,2.25,4.02,4.41,7.33,4.42l49.38.21c-4.5,14.47-3.15,29,5.55,41.47-7.44,4.75-15.35,7.32-24.71,7.72Z"/>
        <g>
          <path class="cls-5" d="M161.89,53.93c-1.26-5.95-.65-11.62,1.35-16.65l-.17.41-21.14-.21c-1.01,3.84-1.58,7.85-1.61,12-.07,8.46,2.18,16.52,7.43,22.85,5.3,6.38,12.49,10.43,20.88,10.45l29.34.07c4.24,0,8.12-1.46,11.51-3.78,6.47-4.45,12.45-9.2,18.14-14.76l-53.53-.23c-5.99-.03-10.9-4.1-12.18-10.13Z"/>
          <path class="cls-5" d="M231.61,9.39l17.63-2.13,9.05-7.26-66.95.14c-23.05.05-42.64,15-48.91,35.61h21.46l-.17.4c4.96-11.11,16.77-18.81,30.02-18.89l43.35-.24,9.32-7.49-14.81-.14Z"/>
        </g>
      </g>
      <g>
        <g>
          <path class="cls-11" d="M31.65,143.33h3.12l4.08,11.64h-2.65l-.9-2.7h-4.13l-.87,2.7h-2.63l3.98-11.64ZM34.68,150.4l-.35-1.05c-.38-1.2-.74-2.57-1.15-4.16-.39,1.6-.73,2.98-1.09,4.16l-.34,1.05h2.92Z"/>
          <path class="cls-11" d="M42.21,143.33h2.66l3.68,5.89c.46.76.95,1.64,1.46,2.85-.09-1.14-.15-2.39-.15-3.16v-5.59h2.44v11.64h-2.66l-3.34-5.34c-.65-1.05-1.08-1.9-1.8-3.35.09,1.41.16,2.66.16,3.34v5.35h-2.44v-11.64Z"/>
          <path class="cls-11" d="M59.96,150.6l-4.31-7.27h2.79l1.97,3.62c.3.53.52,1.02.76,1.62.23-.62.45-1.1.73-1.62l1.91-3.62h2.78l-4.24,7.27v4.38h-2.38v-4.38Z"/>
          <path class="cls-11" d="M69.61,143.33h9.51v1.98h-3.55v9.66h-2.39v-9.66h-3.56v-1.98Z"/>
          <path class="cls-11" d="M85.06,154.97h-2.38v-11.64h2.38v11.64Z"/>
          <path class="cls-11" d="M89.09,143.33h3.66l1.89,5.34c.23.73.59,2.29.87,3.55.27-1.26.62-2.81.86-3.55l1.86-5.34h3.67v11.64h-2.4v-5.49c0-.88.06-2.62.09-4.09-.39,1.57-.88,3.27-1.16,4.09l-1.93,5.49h-2.01l-1.96-5.49c-.27-.8-.74-2.44-1.16-4,.02,1.41.09,3.12.09,4v5.49h-2.37v-11.64Z"/>
          <path class="cls-11" d="M105.91,143.33h7.79v1.98h-5.41v2.81h5v1.95h-5v2.93h5.42v1.98h-7.8v-11.64Z"/>
        </g>
        <g>
          <path class="cls-3" d="M135.49,143.33h3.12l4.08,11.64h-2.65l-.9-2.7h-4.13l-.87,2.7h-2.63l3.98-11.64ZM138.53,150.4l-.35-1.05c-.38-1.2-.74-2.57-1.15-4.16-.39,1.6-.73,2.98-1.09,4.16l-.34,1.05h2.92Z"/>
          <path class="cls-3" d="M146.05,143.33h2.66l3.68,5.89c.46.76.95,1.64,1.46,2.85-.09-1.14-.15-2.39-.15-3.16v-5.59h2.44v11.64h-2.66l-3.34-5.34c-.65-1.05-1.08-1.9-1.8-3.35.09,1.41.16,2.66.16,3.34v5.35h-2.44v-11.64Z"/>
          <path class="cls-3" d="M163.81,150.6l-4.31-7.27h2.79l1.97,3.62c.3.53.52,1.02.76,1.62.23-.62.45-1.1.73-1.62l1.91-3.62h2.78l-4.24,7.27v4.38h-2.38v-4.38Z"/>
          <path class="cls-3" d="M173.11,143.33h2.6l1.35,5.73c.23,1.07.44,2.34.62,3.53.21-1.2.41-2.46.68-3.53l1.42-5.73h2.48l1.41,5.73c.26,1.06.47,2.31.68,3.5.19-1.19.39-2.44.62-3.5l1.35-5.73h2.61l-3.13,11.64h-2.72l-1.55-5.95c-.21-.84-.37-1.78-.53-2.78-.15.97-.29,1.9-.52,2.78l-1.54,5.95h-2.73l-3.12-11.64Z"/>
          <path class="cls-3" d="M192.3,143.33h2.38v4.7h5.07v-4.7h2.39v11.64h-2.39v-4.96h-5.07v4.96h-2.38v-11.64Z"/>
          <path class="cls-3" d="M206.17,143.33h7.79v1.98h-5.41v2.81h5v1.95h-5v2.93h5.42v1.98h-7.8v-11.64Z"/>
          <path class="cls-3" d="M217.81,143.33h4.54c2.65,0,4.16,1.5,4.16,3.79,0,1.59-.73,2.74-2.06,3.31l2.48,4.54h-2.64l-2.22-4.16h-1.88v4.16h-2.38v-11.64ZM221.91,148.89c1.45,0,2.14-.6,2.14-1.77s-.69-1.82-2.15-1.82h-1.71v3.59h1.72Z"/>
          <path class="cls-3" d="M230.24,143.33h7.79v1.98h-5.41v2.81h5v1.95h-5v2.93h5.42v1.98h-7.8v-11.64Z"/>
        </g>
        <circle class="cls-11" cx="123.1" cy="148.84" r="2.01"/>
      </g>
    </g>
  </g>
</svg>